<?xml version="1.0" encoding="utf-8"?>
<!-- Generator: Adobe Illustrator 26.4.1, SVG Export Plug-In . SVG Version: 6.00 Build 0)  -->
<svg version="1.1" xmlns="http://www.w3.org/2000/svg" xmlns:xlink="http://www.w3.org/1999/xlink" x="0px" y="0px"
	 viewBox="0 0 1071.5 283.8" style="enable-background:new 0 0 1071.5 283.8;" xml:space="preserve">
<style type="text/css">
	.st0{display:none;}
	.st1{opacity:0.32;fill:#0C0C0C;}
	.st2{display:inline;fill:#FFFFFF;}
	.st3{font-family:'New';}
	.st4{font-size:633.6708px;}
	.st5{font-size:622.0387px;}
	.st6{display:inline;fill:#29ABE2;}
	.st7{display:inline;opacity:0.63;fill:#A6D3FF;}
	.st8{display:inline;opacity:0.63;fill:#0071BC;}
	.st9{display:inline;fill:#FBB03B;}
	.st10{display:inline;opacity:0.67;fill:#EF8200;}
	.st11{display:inline;opacity:0.18;}
	.st12{display:inline;opacity:0.21;fill:#F2F2F2;}
	.st13{display:inline;fill:#0071BC;}
	.st14{display:inline;fill:#E89C38;}
	.st15{display:inline;}
	.st16{opacity:0.67;fill:#FFD150;}
	.st17{opacity:0.67;fill:#EF8200;}
	.st18{fill:#FFFFFF;}
</style>
<g id="Ebene_5" class="st0">
	<rect x="-203.3" y="-226.6" class="st1" width="974.1" height="959.3"/>
</g>
<g id="Ebene_4" class="st0">
	<text transform="matrix(1 0 0 1 -102.2995 460.5905)" class="st2 st3 st4">X</text>
	<text transform="matrix(1 0 0 1 466.8499 460.198)" class="st2 st3 st5">V</text>
	<text transform="matrix(1 0 0 1 -105.4118 632.9968)" class="st2 st3" style="font-size:157.7487px; letter-spacing:44;">DATABASE</text>
</g>
<g id="Ebene_1" class="st0">
	<path class="st6" d="M-83.6,239.3c-4.2,7.9,3.4,20,9.4,26c4.5,4.5,9.5,6.8,12.8,8c2.3-1.7,5.3-4.3,8.1-7.9c2.3-3,3.9-5.8,5-8.1
		c2-3.1,6.2-10.5,3.3-16.7c0,0-0.3-0.7-0.8-1.4C-51,231.6-77.6,228-83.6,239.3z"/>
	<path class="st6" d="M-92.6,120.3c-0.2,3.5-0.3,5.2-0.3,5.9c-0.5,5.6-1.6,14-4.7,23.6c-0.9,2.6-1.7,4.8-2.2,6.1
		c-4,4.9-8.1,9.8-12.1,14.8c1.2,2.9,2.5,5.8,3.9,8.7c3.4,7.3,7,14.1,10.7,20.3c4.7,1.1,9.9,2,15.4,2.8c6.5,0.9,12.6,1.4,18.1,1.7
		c2.6-0.2,5.2-0.5,7.8-0.7c3.1-0.9,6.2-1.7,9.4-2.6c2.5-0.3,5-0.7,7.5-1c1.6-1.3,3.3-2.7,4.9-4c6.4-8.8,12.7-17.5,19.1-26.3
		c-1.5-0.1-3.3-0.2-5.3,0.1c-2.4,0.3-4.4,0.8-5.9,1.4c0.6-6,1.1-12.1,1.7-18.1c-2.3,0.7-4.5,1.5-6.8,2.2c-0.1-9.2-0.3-18.4-0.4-27.6
		c-4.4,4.3-8.9,8.6-13.3,12.9c-3.2-11.9-6.3-23.9-9.5-35.8c-3.9,2.4-10.1,5.5-18.1,7.3c-7.9,1.8-14.6,1.6-19.1,1.2
		C-92.3,114.6-92.4,117.2-92.6,120.3z"/>
	<path class="st7" d="M-61.4,273.2c2.2-3.4,5.2-8.7,6.9-15.8c1.2-5.1,1.4-9.6,1.3-13c3.3-0.6,6.7-1.1,10-1.7
		c-0.5,3.6-1.5,8.5-4.1,13.8C-51.6,265.4-57.9,270.7-61.4,273.2z"/>
	<path class="st8" d="M-76,242.2c3.7,2.9,2.4,8.4,4.2,15.1c1.1,4.1,3.7,9.8,10.4,15.9c-1.3-0.5-3.1-1.2-5-2.2
		c-2-1.1-7.8-4.5-12.6-11.4c-2-2.9-5-7.2-5.8-13.6c-0.3-2-0.2-3.8-0.2-5C-82.4,240.5-78.6,240.1-76,242.2z"/>
	<path class="st9" d="M-86.7,206.1c-1.3,2.4,4.8,8.6,6.5,15.6c0.2,1,0.5,2.6,0.1,4.5c-0.4,1.9-1.3,3.1-2.1,4.3
		c-1.6,2.5-4.4,6.9-3.8,10.4c0.4,2.5,2.5,4,4.1,5.2c9.6,6.9,22.6,3.3,35.6-0.3c0.6-0.2,1.8-0.5,2.8-1.6c1.8-2,1.4-5.1,1.3-6.1
		c-0.5-3.5-2.1-4-4.7-9.2c-1.8-3.6-3-5.9-3-9.1c0.1-3.1,1.4-5.6,2.3-7.4c2.4-4.7,4.9-5.8,4.5-6.8c-0.8-2.1-10.4,2.2-23.3,2
		C-78,207.3-85.5,203.7-86.7,206.1z"/>
	<path class="st10" d="M-80.3,221.4c4.3,0.7,10,1.1,16.6,0.5c5.5-0.5,10.2-1.6,13.9-2.7c0,0.2,0,0.3,0,0.5c0,0.2,0,0.4,0,0.7
		c-4,1.1-8.9,2.2-14.7,2.6c-6,0.5-11.3,0.2-15.5-0.3c0-0.2-0.1-0.4-0.1-0.6C-80.2,221.9-80.2,221.6-80.3,221.4z"/>
	<path class="st10" d="M-79.9,223.9c4.3,0.7,9.9,1.1,16.5,0.5c5.4-0.5,10-1.6,13.7-2.7c0,0.2,0.1,0.3,0.1,0.5c0,0.2,0.1,0.4,0.1,0.6
		c-4,1.1-9,2.2-14.8,2.6c-6.1,0.5-11.4,0.2-15.7-0.3c0-0.2,0-0.3,0-0.5C-79.9,224.3-79.9,224.1-79.9,223.9z"/>
	<path class="st11" d="M-77,211.5c3,4,3.8,7.4,4,9.6c0.7,6.1-1.7,12.7-2.4,14.8c-1.1,2.9-1.9,4.3-1.7,6.6c0.3,3.2,2.3,5.6,4,7.2
		c-2.1-0.3-3.7-0.8-4.8-1.2c-3.5-1.4-7.3-4.1-7.9-6.9c-0.3-1.4-0.2-2.7-0.2-2.7c0-0.3,0.1-0.8,0.4-1.7c0.1-0.5,0.6-2,1.8-4.1
		c0.4-0.7,1.1-1.8,1.8-2.9c0.3-0.4,0.5-0.7,0.7-1.1c0.1-0.2,0.7-1.3,1-2.3c0.6-2.1,0.2-4-0.1-5.3c-0.3-1.1-0.6-1.9-0.8-2.4
		c-0.7-1.7-1.9-4.3-4-7.7C-82.4,211.3-79.7,211.4-77,211.5z"/>
	<path class="st12" d="M-53.2,247.6c3.5-1,5.9-1.6,6.9-1.9c0.1,0,0.5-0.1,1-0.3c0.3-0.1,0.8-0.4,1.4-0.8c0.1-0.1,0.7-0.6,1.2-1.6
		c0.5-0.9,0.6-1.8,0.7-2.5c0.2-1.7-0.1-3-0.3-3.5c-0.4-1.3-0.9-2.2-1.4-3c-0.4-0.7-0.5-0.8-1.2-1.9c-0.6-1-1-1.7-1.3-2.2
		c-1.3-2.3-2.1-4-2.4-4.7c-0.4-0.9-0.6-1.5-0.8-2.1c-0.3-1.1-0.4-2-0.4-2.2c0-0.1-0.1-1,0-2c0.1-0.8,0.4-2.6,1.5-5.1
		c0.7-1.4,1.8-3.5,3.5-5.6c-1.4-2.8-4.6-4.1-7.5-3.2c-2.9,0.9-4.7,3.9-4.2,6.9c-1.2,4.5-1.1,8.2-0.9,10.7c0.4,5.3,2.2,9.8,2.9,11.5
		c0.9,2.2,1.4,2.7,1.8,4.3C-51.6,241.9-52.4,245.3-53.2,247.6z"/>
	<path class="st7" d="M-53.5,110.3c2.7,10,5.3,20,8,30c4.4-4.3,8.9-8.6,13.3-12.9c0.1,9.2,0.3,18.4,0.4,27.6
		c2.3-0.7,4.5-1.5,6.8-2.2c-0.6,6-1.1,12.1-1.7,18.1c1.5-0.5,3.4-1,5.5-1.3c2.2-0.3,4.2-0.4,5.8-0.3c-4.9,6.8-9.7,13.6-14.6,20.3
		c-0.7,0.2-1.4,0.4-2,0.7c-1,1.4-2,2.9-3,4.3c-2.8-1-5.6-2-8.4-3.1c4.9-4.8,9.7-9.6,14.6-14.4c-2.2-0.1-4.3-0.1-6.5-0.2
		c1-3.9,2.1-7.8,3.1-11.7c-2,1.1-4,2.2-6.1,3.3c-0.3-6.7-0.6-13.4-0.8-20.1c-3.7,4.1-7.4,8.2-11.1,12.3
		c-3.6-15.2-7.2-30.3-10.8-45.5C-58.4,113.7-55.9,112-53.5,110.3z"/>
	<path class="st13" d="M-84.9,117.7c-0.3,7.5-0.7,15-1,22.6c-2,5.9-4.1,11.9-6.1,17.8c-3,4.4-6.1,8.8-9.1,13.2
		c5.9,9.8,11.7,19.7,17.6,29.5c-2.9-0.3-5.9-0.7-9-1.3c-1.9-0.3-3.7-0.7-5.5-1.1c-2.5-4.4-5.1-9.1-7.6-14.2
		c-2.3-4.7-4.4-9.3-6.3-13.7c4-4.9,8.1-9.8,12.1-14.8c1.8-4.5,3.5-9.8,4.8-15.9c1-4.4,1.6-8.4,1.9-12.1
		C-90.4,124.5-87.7,121.1-84.9,117.7z"/>
	<path class="st14" d="M19.8,145.5C18,131.8,9,120.3,9,120.3c-3.2-4.2-6.5-7.1-8.9-9.1c-0.3-1.9-0.6-3.9-0.9-5.8
		c-2,0.5-3.9,1-5.9,1.5c0.2-3.3,0.4-6.5,0.6-9.8c-2.9,1.7-5.9,3.4-8.8,5.2c-1-1.9-1.9-3.8-2.9-5.6c-2.2,1-4.4,2.1-6.6,3.1
		c-10.4-3.9-32.4-10.6-59.7-6.3c-37.9,6-61.1,29.3-68.2,37.1c-2.3,0.6-4.6,1.2-6.8,1.8c0.6,2.4,1.2,4.7,1.8,7.1
		c-3.1,1-6.2,2.1-9.3,3.1c1.6,2.8,3.3,5.6,4.9,8.4c-1.4,1.5-2.8,3-4.1,4.5c1.8,1.6,3.6,3.3,5.3,4.9c0.5,3.5,1.5,8.5,4.1,13.9
		c7.4,15.1,21.7,21.4,33.6,26.8c22.7,10.4,44.4,11.6,58.8,10.9c2.9,0.8,5.8,1.7,8.7,2.5c2.1-2.5,4.2-5.1,6.3-7.6
		c3.6,1.4,7.2,2.9,10.8,4.3c1.8-2.4,3.6-4.8,5.4-7.2c2.8,0.5,5.6,1,8.4,1.4c0.9-1.9,1.7-3.7,2.6-5.6
		C6.3,186.6,22.2,162.9,19.8,145.5z M-64.8,201.8c-10.4,0.1-35-0.7-56.5-11.3c-13.8-6.8-18.9-14-20.9-17.2
		c-3.3-5.2-4.7-10.3-5.3-13.7c2.2-1,4.4-2,6.6-3c-1.4-1.6-2.9-3.2-4.3-4.8c3.1-1.2,6.2-2.3,9.3-3.5c-2-2.2-4-4.4-6.1-6.6
		c1.9-0.7,3.9-1.4,5.8-2.1c-0.7-1.7-1.4-3.4-2.1-5.1c7-7.1,30.4-28.9,66.5-32c18.7-1.6,34,2.4,43.4,5.7c0,2,0.1,3.9,0.1,5.9
		c2.7-0.8,5.3-1.7,8-2.5c-0.6,3.2-1.3,6.4-1.9,9.6c3.2-1.6,6.5-3.1,9.7-4.7c0.6,2,1.1,4.1,1.7,6.1c2-1.1,4-2.2,6-3.3
		c3.2,3,12.7,12.8,13.4,27.1c0.9,18.3-13,36.7-34.7,43.8c-2-0.3-3.9-0.5-5.9-0.8c-1,1.7-2,3.4-3,5.1c-3.5-1.4-6.9-2.8-10.4-4.3
		c-1.8,3-3.7,6-5.5,9c-2.5-0.9-4.9-1.8-7.4-2.7C-60.4,198.3-62.6,200.1-64.8,201.8z"/>
	<g id="Ebene_3" class="st15">
		<path class="st16" d="M8.1,126.4c-9.7-15.8-25.3-21.4-36.8-25.5C-59,90-85.8,96.2-90.5,97.3c-22.9,5.6-61.8,23-65.8,52.2
			c-1.5,10.7,2.2,19.7,3.3,22.4c7.1,16,22.5,22.7,34.1,27.6c8.7,3.6,39.2,15.9,75.6,4c2.9-0.9,57.5-19.4,58.8-53.1
			C15.9,139.1,10.2,129.8,8.1,126.4z M13.2,150.4C12,183.2-41.2,201.2-44,202.1c-35.5,11.6-65.2-0.3-73.6-3.9
			c-11.2-4.7-26.2-11.3-33.2-26.9c-1.2-2.6-4.7-11.4-3.3-21.8c3.9-28.4,41.8-45.4,64.1-50.9c4.6-1.1,30.7-7.1,60.2,3.5
			c11.2,4,26.4,9.4,35.8,24.8C8.1,130.4,13.6,139.4,13.2,150.4z"/>
		<path class="st17" d="M6,127c-9.4-15.4-24.6-20.8-35.8-24.8c-29.5-10.5-55.6-4.6-60.2-3.5c-22.3,5.4-60.1,22.4-64.1,50.9
			c-1.4,10.4,2.1,19.2,3.3,21.8c6.9,15.6,21.9,22.1,33.2,26.9c8.4,3.5,38.2,15.4,73.6,3.9c2.8-0.9,56-18.9,57.2-51.7
			C13.6,139.4,8.1,130.4,6,127z M11,150.4c-1.2,31.9-53,49.5-55.7,50.3c-34.5,11.3-63.5-0.3-71.7-3.8c-11-4.6-25.6-11-32.3-26.1
			c-1.1-2.5-4.6-11.1-3.2-21.2c3.8-27.7,40.7-44.2,62.4-49.5c4.5-1.1,29.9-6.9,58.6,3.4c10.9,3.9,25.7,9.2,34.9,24.2
			C6,130.9,11.4,139.7,11,150.4z"/>
	</g>
	<path class="st6" d="M-55,110.8c0.1-1.6,0.3-3.2,0.4-4.7c-3.2-11.8-6.3-23.6-9.5-35.3c-8,3.8-14.4,5.6-17.1,5.4
		c-2.5-0.2-5-0.7-7.3-1.6c-1.9,17.6-3.2,31.2-3.8,39.8c6.1-0.5,12.6-0.8,19.4-0.8c4.1,0,8,0,11.9,0.2C-58.9,112.7-57,111.8-55,110.8
		z"/>
	<path class="st13" d="M-81.1,7.1c-1.3,38-2.7,76-4,113.9c-2.6,1.4-5.2,2.8-7.8,4.2c0.2-3.3,0.4-8.1,0.9-13.9
		c1.4-20.4,3.1-34.8,4.8-49.2C-85.8,49.7-83.7,31.2-81.1,7.1z"/>
	<path class="st9" d="M-26.2,58C-35.1,43.8-65,46.6-93,64.2s-43.5,43.3-34.6,57.4c8.9,14.1,38.8,11.3,66.8-6.2S-17.4,72.1-26.2,58z
		 M-64.1,110.5c-22.6,14.2-46.8,16.5-54,5c-7.2-11.4,5.4-32.2,28-46.4c22.6-14.2,46.8-16.5,54-5C-28.9,75.5-41.4,96.3-64.1,110.5z"
		/>
	<path class="st6" d="M-64,70.7c-5.7-21.2-11.3-42.4-17-63.6c-2.9,26.2-5.5,49-7.4,67.4c2.3,0.9,4.7,1.5,7.3,1.6
		C-75,76.5-69.1,74.5-64,70.7z"/>
	<path class="st13" d="M-81.1,7.1c-0.5,22.8-1.3,46-2.3,69.6c-0.6,12.9-1.2,25.6-2,38.2c-2,0.9-4,1.9-6.1,2.8
		c0.3-2.1,0.6-4.2,0.8-6.4c-0.1-4.9-0.2-9.8-0.3-14.8c1.2-11.5,2.4-23,3.7-34.5C-85.2,43.8-83.2,25.4-81.1,7.1z"/>
	<path class="st7" d="M-81.1,7.1c6.3,34.1,12.6,68.1,18.9,102.2c1.3-0.8,2.6-1.8,4-2.8c1.1-0.8,2.1-1.6,3.1-2.4
		C-63.8,71.8-72.4,39.5-81.1,7.1z"/>
</g>
<g id="Ebene_6">
	<g>
		<path class="st18" d="M88,148.7v-2L32.5,72.1h41l36.4,50.1h3.6l36.2-50.1h41.2l-55.3,74.5v2l56.6,76.5h-41.5l-37.2-52.1h-3.6
			l-37.2,52.1H31.2L88,148.7z"/>
		<path class="st18" d="M201.8,72.1h37.6v153.1h-37.6V72.1z"/>
		<path class="st18" d="M250,72.1h38.9l46.4,118.6h4.9l46.4-118.6h39.1l-61.5,153.1h-52.9L250,72.1z"/>
		<path class="st18" d="M593.9,148.7c0,43.5-23.4,76.5-85,76.5h-72.9V72.1H509C570.5,72.1,593.9,105.1,593.9,148.7z M556.2,148.7
			c0-29.5-16.6-45.9-47.4-45.9h-34.7l-0.4,91.8h35.1C539.6,194.6,556.2,178.2,556.2,148.7z"/>
		<path class="st18" d="M715,199.5h-78.2l-9.8,25.7h-38.9l61.4-153.1h52.9l61.5,153.1h-39.1L715,199.5z M704.4,172l-24.9-65.4h-7.2
			L647.4,172H704.4z"/>
		<path class="st18" d="M897.7,102.6h-59.5v122.6h-37.8V102.6h-59.3V72.1h156.5V102.6z"/>
		<path class="st18" d="M1001.9,199.5h-78.2l-9.8,25.7h-38.9l61.4-153.1h52.9l61.5,153.1h-39.1L1001.9,199.5z M991.4,172l-24.9-65.4
			h-7.2L934.3,172H991.4z"/>
	</g>
</g>
</svg>
